<?xml version="1.0" encoding="UTF-8" standalone="no"?>
<!DOCTYPE svg PUBLIC "-//W3C//DTD SVG 1.1//EN" "http://www.w3.org/Graphics/SVG/1.1/DTD/svg11.dtd">
<svg width="100%" height="100%" viewBox="0 0 476 476" version="1.1" xmlns="http://www.w3.org/2000/svg" xmlnsXlink="http://www.w3.org/1999/xlink" xmlSpace="preserve" xmlnsserif="http://www.serif.com/" style="fill-rule:evenodd;clip-rule:evenodd;stroke-linejoin:round;stroke-miterlimit:2;">
    <g>
        <path d="M473.334,156.289C473.117,155.765 472.805,155.286 472.412,154.877C467.99,150.264 440.024,121.088 427.641,108.17C426.195,106.661 425.5,104.583 425.749,102.507C425.998,100.432 427.164,98.577 428.927,97.453C432.977,94.87 437.833,91.773 440.932,89.796C442.912,88.534 444.22,86.448 444.494,84.116C444.523,83.865 444.553,83.608 444.584,83.348C444.786,81.624 444.269,79.893 443.155,78.562C442.041,77.231 440.427,76.419 438.694,76.315C438.103,76.28 437.541,76.247 437.042,76.217C435.731,76.139 434.434,76.514 433.369,77.281C429.205,80.275 418.168,88.214 412.18,92.521C409.58,94.391 406.459,95.398 403.257,95.401C396.747,95.407 385.374,95.417 379.124,95.422C376.243,95.425 373.432,94.537 371.074,92.882C366.028,89.337 357.061,83.04 353.142,80.287C351.869,79.393 350.457,78.716 348.962,78.285C348.96,78.284 348.958,78.284 348.956,78.283C346.145,77.471 343.139,78.656 341.637,81.167C340.136,83.679 340.515,86.887 342.561,88.979C342.684,89.105 342.75,89.173 342.75,89.173C342.75,89.173 354.625,101.443 358.771,105.726C359.649,106.633 360.01,107.922 359.731,109.154C359.731,109.154 359.73,109.155 359.73,109.156C358.956,112.572 356.096,115.119 352.613,115.493C325.579,118.401 213.207,130.486 203.594,131.519C203.157,131.566 202.718,131.584 202.278,131.572C192.758,131.306 82.959,128.239 50.718,127.339C44.913,127.177 39.162,128.487 34.001,131.148C31.138,132.623 28.047,134.216 25.757,135.396C23.462,136.579 21.449,138.242 19.854,140.271C18.147,142.444 15.869,145.343 14.159,147.519C12.563,149.551 11.496,151.947 11.056,154.492C9.573,163.057 6.089,183.183 5.307,187.703C5.202,188.31 5.136,188.923 5.11,189.538C4.907,194.309 3.987,215.93 3.987,215.93C3.987,215.93 2.207,241.054 2.133,242.096C2.131,242.118 2.13,242.141 2.129,242.163C2.096,242.968 1.462,258.11 1.204,264.269C1.142,265.752 2.165,267.061 3.619,267.358C3.62,267.358 3.62,267.358 3.621,267.358C4.835,267.607 6.091,267.196 6.924,266.279C7.981,265.115 9.454,263.494 10.558,262.278C11.559,261.176 12.19,259.787 12.36,258.308C12.939,253.266 14.304,241.397 14.601,238.817C14.639,238.483 14.651,238.147 14.636,237.812C14.46,233.904 13.317,208.457 13.128,204.263C13.113,203.93 13.352,203.64 13.681,203.591C14.101,203.528 14.596,203.453 14.596,203.453C14.596,203.453 23.837,249.534 24.637,253.521C24.673,253.702 24.677,253.889 24.648,254.072C24.087,257.639 18.274,294.569 17.841,297.323C17.824,297.431 17.819,297.54 17.827,297.649C18.128,301.831 24.094,384.681 24.094,384.681C24.094,384.681 24.254,387.26 24.408,389.753C24.59,392.682 25.953,395.413 28.186,397.318C28.335,397.445 28.483,397.571 28.627,397.694C30.037,398.897 31.829,399.559 33.682,399.561C39.657,399.571 53.185,399.592 56.904,399.598C57.543,399.598 58.179,399.517 58.796,399.354C59.444,399.183 60.373,398.938 61.401,398.667C62.692,398.326 63.675,397.278 63.932,395.967C64.189,394.657 63.674,393.315 62.607,392.513C59.672,390.305 56.1,387.619 53.122,385.379C49.333,382.529 47.195,377.993 47.408,373.258C48.078,358.359 49.553,325.562 50.129,312.757C50.262,309.811 52.69,307.491 55.64,307.495C55.64,307.495 55.641,307.495 55.642,307.495C58.647,307.498 61.311,309.427 62.252,312.281C66.802,326.081 79.788,365.466 82.223,372.852C82.486,373.649 82.854,374.408 83.317,375.108C85.242,378.016 90.633,386.159 92.902,389.587C93.579,390.609 94.471,391.472 95.515,392.115C96.262,392.574 97.151,393.122 97.901,393.583C98.953,394.231 100.164,394.574 101.4,394.575C105.582,394.578 115.793,394.586 122.652,394.591C123.844,394.592 124.926,393.894 125.417,392.808C125.908,391.721 125.716,390.448 124.928,389.554C124.062,388.572 123.301,387.709 122.908,387.264C122.721,387.052 122.501,386.872 122.256,386.731C120.766,385.874 115.073,382.599 110.813,380.148C107.647,378.327 105.321,375.335 104.337,371.817C100.984,359.828 93.105,331.663 90.603,322.716C90.094,320.896 90.084,318.973 90.575,317.149C90.786,316.365 91.023,315.485 91.26,314.605C92.134,311.358 94.822,308.918 98.139,308.361C98.629,308.279 99.106,308.199 99.548,308.125C100.954,307.889 102.343,308.627 102.936,309.923C104.224,312.743 106.543,317.816 108.629,322.382C109.364,323.991 110.994,325 112.761,324.941C114.529,324.882 116.088,323.767 116.715,322.113C117.864,319.081 119.007,316.063 119.695,314.246C119.808,313.949 120.086,313.747 120.404,313.732C120.721,313.716 121.018,313.891 121.158,314.176C122.162,316.215 123.933,319.808 125.509,323.008C126.099,324.206 127.326,324.957 128.661,324.937C129.996,324.918 131.201,324.131 131.755,322.916C133.133,319.899 134.693,316.483 135.771,314.121C136.648,312.201 137.981,310.526 139.653,309.24C143.611,306.198 151.262,300.317 155.891,296.758C158.399,294.83 161.399,293.648 164.548,293.347C178.458,292.014 218.66,288.164 233.98,286.697C237.747,286.337 241.446,287.878 243.842,290.807C246.39,293.922 249.622,297.874 251.621,300.318C252.838,301.806 253.624,303.6 253.892,305.503C255.739,318.596 263.246,371.833 264.621,381.585C264.765,382.603 265.079,383.59 265.551,384.503C265.981,385.337 266.566,386.471 267.19,387.679C269.414,391.987 273.858,394.693 278.707,394.691C284.486,394.689 291.953,394.685 295.737,394.684C297.257,394.683 298.677,393.931 299.532,392.674C299.532,392.674 299.533,392.674 299.533,392.673C299.95,392.059 300.104,391.304 299.96,390.576C299.816,389.848 299.386,389.208 298.766,388.799C294.953,386.288 287.518,381.39 284.271,379.252C283.284,378.601 282.688,377.5 282.683,376.317C282.658,369.259 282.567,344.212 282.52,331.169C282.514,329.499 283.394,327.95 284.832,327.101C286.269,326.251 288.05,326.226 289.51,327.037C289.609,327.092 289.705,327.145 289.799,327.197C290.872,327.793 291.679,328.774 292.056,329.941C294.121,336.333 300.926,357.395 300.926,357.395C300.926,357.395 310.072,386.299 312.413,393.696C312.765,394.807 313.447,395.786 314.368,396.5C314.368,396.5 314.369,396.5 314.369,396.501C316.947,398.499 320.116,399.585 323.379,399.587C328.42,399.59 335.994,399.595 340.04,399.597C341.71,399.598 343.203,398.557 343.779,396.989C343.78,396.989 343.78,396.988 343.78,396.988C344.414,395.264 343.821,393.33 342.331,392.257C339.051,389.896 333.396,385.826 330.471,383.72C329.251,382.842 328.332,381.61 327.836,380.191C325.608,373.812 319.07,355.093 316.108,346.612C315.128,343.806 314.792,340.815 315.124,337.861C316.127,328.948 318.363,309.083 319.396,299.904C319.742,296.83 321.352,294.038 323.839,292.198C328.365,288.85 335.837,283.323 340.789,279.66C344.088,277.219 346.808,274.08 348.753,270.467C355.738,257.493 373.22,225.022 380.359,211.762C382.377,208.012 385.56,205.02 389.426,203.235C399.553,198.56 419.583,189.313 425.281,186.682C426.304,186.21 427.397,185.904 428.517,185.777C434.62,185.082 455.58,182.696 463.569,181.786C465.587,181.556 467.455,180.609 468.831,179.116C468.831,179.116 468.832,179.116 468.832,179.115C469.678,178.197 470.33,177.117 470.748,175.94C471.541,173.706 472.93,169.792 474.034,166.679C475.103,163.665 475.019,160.363 473.797,157.408L473.334,156.289Z" style="fill-rule:nonzero;"/>
    </g>
</svg>
